grf
version=1
nRows=11
nColumns=37
inDegrees=no
endheader
time	ground_force_1_vx	ground_force_1_vy	ground_force_1_vz	ground_force_1_px	ground_force_1_py	ground_force_1_pz	ground_moment_1_mx	ground_moment_1_my	ground_moment_1_mz	ground_force_2_vx	ground_force_2_vy	ground_force_2_vz	ground_force_2_px	ground_force_2_py	ground_force_2_pz	ground_moment_2_mx	ground_moment_2_my	ground_moment_2_mz	ground_force_3_vx	ground_force_3_vy	ground_force_3_vz	ground_force_3_px	ground_force_3_py	ground_force_3_pz	ground_moment_3_mx	ground_moment_3_my	ground_moment_3_mz	ground_force_4_vx	ground_force_4_vy	ground_force_4_vz	ground_force_4_px	ground_force_4_py	ground_force_4_pz	ground_moment_4_mx	ground_moment_4_my	ground_moment_4_mz
      2.79000000	      0.00000000	     -0.00000000	      0.00000000	      0.00000000	      0.00000000	      0.00000000	      0.00000000	      0.00000000	      0.00000000	      0.17842342	    -16.31085777	   -797.71575928	   -262.64615359	  -1049.76987783	      0.00000000	      0.00000000	     -0.00000000	    -22.84050594	      0.00000000	     -0.00000000	      0.00000000	      0.00000000	      0.00000000	      0.00000000	      0.00000000	      0.00000000	      0.00000000	    -34.94864132	     16.16444703	     75.33969879	    607.72447975	   -564.43714715	      0.00000000	      0.00000000	     -0.00000000	   -104.29243756
      2.80000000	      0.00000000	     -0.00000000	      0.00000000	      0.00000000	      0.00000000	      0.00000000	      0.00000000	      0.00000000	      0.00000000	      1.90322363	    -16.07364464	   -801.01129150	   -264.80132133	  -1049.08294675	      0.00000000	      0.00000000	      0.00000000	    122.85663356	      0.00000000	     -0.00000000	      0.00000000	      0.00000000	      0.00000000	      0.00000000	      0.00000000	      0.00000000	      0.00000000	    -34.82982494	     16.19403762	     76.74088287	    601.12242740	   -561.53512214	      0.00000000	      0.00000000	     -0.00000000	   -100.90967377
      2.81000000	      0.00000000	     -0.00000000	      0.00000000	      0.00000000	      0.00000000	      0.00000000	      0.00000000	      0.00000000	      0.00000000	      2.73409247	    -16.72667503	   -801.95495605	   -265.93197744	  -1048.89653001	      0.00000000	      0.00000000	      0.00000000	    134.06477692	      0.00000000	     -0.00000000	      0.00000000	      0.00000000	      0.00000000	      0.00000000	      0.00000000	      0.00000000	      0.00000000	    -34.88949442	     16.37378235	     75.46284485	    606.41407640	   -566.75977055	      0.00000000	      0.00000000	     -0.00000000	   -159.16216988
      2.82000000	      0.00000000	     -0.00000000	      0.00000000	      0.00000000	      0.00000000	      0.00000000	      0.00000000	      0.00000000	      0.00000000	      2.67631531	    -16.43114471	   -797.83593750	   -266.87056050	  -1049.20246174	      0.00000000	      0.00000000	     -0.00000000	    256.28960043	      0.00000000	     -0.00000000	      0.00000000	      0.00000000	      0.00000000	      0.00000000	      0.00000000	      0.00000000	      0.00000000	    -34.88880014	     16.37447662	     74.86739349	    610.87523091	   -565.89962176	      0.00000000	      0.00000000	     -0.00000000	   -253.28639546
      2.83000000	      0.00000000	     -0.00000000	      0.00000000	      0.00000000	      0.00000000	      0.00000000	      0.00000000	      0.00000000	      0.00000000	      3.89525366	    -14.85560989	   -789.23840332	   -267.02609582	  -1050.15914475	      0.00000000	     -0.00000000	      0.00000000	    235.20353778	      0.00000000	     -0.00000000	      0.00000000	      0.00000000	      0.00000000	      0.00000000	      0.00000000	      0.00000000	      0.00000000	    -34.82953502	     16.16529578	     76.62163544	    601.30567011	   -561.69773229	      0.00000000	      0.00000000	     -0.00000000	   -198.09077199
      2.84000000	      0.00000000	     -0.00000000	      0.00000000	      0.00000000	      0.00000000	      0.00000000	      0.00000000	      0.00000000	      0.00000000	      6.74991465	    -12.56634617	   -781.70220947	   -268.18115264	  -1050.02155479	      0.00000000	     -0.00000000	      0.00000000	    119.61613989	      0.00000000	     -0.00000000	      0.00000000	      0.00000000	      0.00000000	      0.00000000	      0.00000000	      0.00000000	      0.00000000	    -35.04013682	     16.31629869	     76.62104034	    600.97926851	   -563.52801732	      0.00000000	      0.00000000	     -0.00000000	   -129.53056801
      2.85000000	      0.00000000	     -0.00000000	      0.00000000	      0.00000000	      0.00000000	      0.00000000	      0.00000000	      0.00000000	      0.00000000	      8.65465832	    -10.78477859	   -782.16436768	   -269.13670211	  -1050.72847498	      0.00000000	      0.00000000	      0.00000000	    172.33614925	      0.00000000	     -0.00000000	      0.00000000	      0.00000000	      0.00000000	      0.00000000	      0.00000000	      0.00000000	      0.00000000	    -34.83121351	     15.95358581	     75.80566406	    602.17566821	   -561.22912743	      0.00000000	     -0.00000000	     -0.00000000	    -86.86029394
      2.86000000	      0.00000000	     -0.00000000	      0.00000000	      0.00000000	      0.00000000	      0.00000000	      0.00000000	      0.00000000	      0.00000000	      8.29799747	     -9.50960827	   -787.71087646	   -269.80016279	  -1051.09062708	      0.00000000	      0.00000000	      0.00000000	     55.97036218	      0.00000000	     -0.00000000	      0.00000000	      0.00000000	      0.00000000	      0.00000000	      0.00000000	      0.00000000	      0.00000000	    -34.88707975	     16.01632995	     74.98451996	    606.73932618	   -567.51618282	      0.00000000	      0.00000000	      0.00000000	    105.41324626
      2.87000000	      0.00000000	     -0.00000000	      0.00000000	      0.00000000	      0.00000000	      0.00000000	      0.00000000	      0.00000000	      0.00000000	      8.09116364	    -10.00957298	   -795.46160889	   -270.42167760	  -1050.94395728	      0.00000000	      0.00000000	      0.00000000	      4.13991424	      0.00000000	     -0.00000000	      0.00000000	      0.00000000	      0.00000000	      0.00000000	      0.00000000	      0.00000000	      0.00000000	    -35.01262906	     16.04328080	     76.73133850	    598.51745943	   -561.15440640	      0.00000000	      0.00000000	      0.00000000	     40.43941866
      2.88000000	      0.00000000	     -0.00000000	      0.00000000	      0.00000000	      0.00000000	      0.00000000	      0.00000000	      0.00000000	      0.00000000	      7.97008562	    -12.06108856	   -802.65783691	   -271.00525734	  -1050.24657476	      0.00000000	      0.00000000	      0.00000000	    210.18841599	      0.00000000	     -0.00000000	      0.00000000	      0.00000000	      0.00000000	      0.00000000	      0.00000000	      0.00000000	      0.00000000	    -34.88880015	     16.28450699	     74.41867828	    607.72360097	   -564.71392145	      0.00000000	      0.00000000	     -0.00000000	   -167.07410108
      2.89000000	      0.00000000	     -0.00000000	      0.00000000	      0.00000000	      0.00000000	      0.00000000	      0.00000000	      0.00000000	      0.00000000	      7.22605133	    -11.53020668	   -808.90246582	   -270.81681828	  -1050.89079230	      0.00000000	     -0.00000000	      0.00000000	    339.31824242	      0.00000000	     -0.00000000	      0.00000000	      0.00000000	      0.00000000	      0.00000000	      0.00000000	      0.00000000	      0.00000000	    -34.85821011	     16.10456771	     74.87281799	    608.46654970	   -563.33245854	      0.00000000	      0.00000000	     -0.00000000	   -175.78927175
